<?xml version="1.0" standalone="no"?>
<svg xmlns:xlink="http://www.w3.org/1999/xlink" id="wave" style="transform:rotate(0deg); transition: 0.3s" viewBox="0 0 1440 490" version="1.1" xmlns="http://www.w3.org/2000/svg"><defs><linearGradient id="sw-gradient-0" x1="0" x2="0" y1="1" y2="0"><stop stop-color="rgba(182.207, 222.944, 255, 1)" offset="0%"/><stop stop-color="rgba(255, 255, 255, 1)" offset="100%"/></linearGradient></defs><path style="transform:translate(0, 0px); opacity:1" fill="url(#sw-gradient-0)" d="M0,392L60,400.2C120,408,240,425,360,392C480,359,600,278,720,245C840,212,960,229,1080,204.2C1200,180,1320,114,1440,122.5C1560,131,1680,212,1800,269.5C1920,327,2040,359,2160,343C2280,327,2400,261,2520,204.2C2640,147,2760,98,2880,138.8C3000,180,3120,310,3240,318.5C3360,327,3480,212,3600,163.3C3720,114,3840,131,3960,163.3C4080,196,4200,245,4320,269.5C4440,294,4560,294,4680,253.2C4800,212,4920,131,5040,98C5160,65,5280,82,5400,106.2C5520,131,5640,163,5760,212.3C5880,261,6000,327,6120,310.3C6240,294,6360,196,6480,179.7C6600,163,6720,229,6840,212.3C6960,196,7080,98,7200,98C7320,98,7440,196,7560,269.5C7680,343,7800,392,7920,392C8040,392,8160,343,8280,343C8400,343,8520,392,8580,416.5L8640,441L8640,490L8580,490C8520,490,8400,490,8280,490C8160,490,8040,490,7920,490C7800,490,7680,490,7560,490C7440,490,7320,490,7200,490C7080,490,6960,490,6840,490C6720,490,6600,490,6480,490C6360,490,6240,490,6120,490C6000,490,5880,490,5760,490C5640,490,5520,490,5400,490C5280,490,5160,490,5040,490C4920,490,4800,490,4680,490C4560,490,4440,490,4320,490C4200,490,4080,490,3960,490C3840,490,3720,490,3600,490C3480,490,3360,490,3240,490C3120,490,3000,490,2880,490C2760,490,2640,490,2520,490C2400,490,2280,490,2160,490C2040,490,1920,490,1800,490C1680,490,1560,490,1440,490C1320,490,1200,490,1080,490C960,490,840,490,720,490C600,490,480,490,360,490C240,490,120,490,60,490L0,490Z"/></svg>